<?xml version="1.0" encoding="UTF-8" standalone="no"?>
<!-- Created with Inkscape (http://www.inkscape.org/) -->

<svg
   height="1000"
   width="1000"
   sodipodi:docname="cardano_font_project_V2.svg"
   version="1.1"
   id="svg43"
   viewBox="0 0 1000 1000"
   inkscape:version="1.2.2 (b0a8486541, 2022-12-01)"
   xmlns:inkscape="http://www.inkscape.org/namespaces/inkscape"
   xmlns:sodipodi="http://sodipodi.sourceforge.net/DTD/sodipodi-0.dtd"
   xmlns="http://www.w3.org/2000/svg"
   xmlns:svg="http://www.w3.org/2000/svg"
   xmlns:rdf="http://www.w3.org/1999/02/22-rdf-syntax-ns#"
   xmlns:cc="http://creativecommons.org/ns#"
   xmlns:dc="http://purl.org/dc/elements/1.1/">
  <sodipodi:namedview
     id="base"
     pagecolor="#ffffff"
     bordercolor="#000000"
     borderopacity="0.3"
     inkscape:pageopacity="0.0"
     inkscape:pageshadow="2"
     inkscape:zoom="0.70710678"
     inkscape:cx="252.43712"
     inkscape:cy="656.9022"
     inkscape:document-units="px"
     inkscape:current-layer="layer7"
     showgrid="false"
     showguides="true"
     inkscape:window-width="1920"
     inkscape:window-height="1020"
     inkscape:window-x="0"
     inkscape:window-y="30"
     inkscape:window-maximized="1"
     showborder="false"
     inkscape:showpageshadow="false"
     inkscape:pagecheckerboard="0"
     inkscape:deskcolor="#d1d1d1"
     borderlayer="true">
    <sodipodi:guide
       id="guide_baseline"
       inkscape:label="baseline"
       position="0,-23"
       orientation="0,1"
       inkscape:locked="false"
       inkscape:color="rgb(0,134,229)" />
    <sodipodi:guide
       id="guide_ascender"
       inkscape:label="ascender"
       position="0,757"
       orientation="0,1"
       inkscape:locked="false"
       inkscape:color="rgb(0,134,229)" />
    <sodipodi:guide
       id="guide_caps"
       inkscape:label="caps"
       position="0,708"
       orientation="0,1"
       inkscape:locked="false"
       inkscape:color="rgb(0,134,229)" />
    <sodipodi:guide
       id="guide_xheight"
       inkscape:label="xheight"
       position="0,526"
       orientation="0,1"
       inkscape:locked="false"
       inkscape:color="rgb(0,134,229)" />
    <sodipodi:guide
       id="guide_descender"
       inkscape:label="descender"
       position="0,-269"
       orientation="0,1"
       inkscape:locked="false"
       inkscape:color="rgb(0,134,229)" />
    <sodipodi:guide
       position="40,1000"
       orientation="-1,0"
       id="guide95"
       inkscape:locked="false"
       inkscape:label="leftguide"
       inkscape:color="rgb(0,134,229)" />
    <sodipodi:guide
       position="540,1000"
       orientation="-1,0"
       id="guide97"
       inkscape:locked="false"
       inkscape:label="rightguide"
       inkscape:color="rgb(0,134,229)" />
  </sodipodi:namedview>
  <defs
     id="defs4" />
  <metadata
     id="metadata7">
    <rdf:RDF>
      <cc:Work
         rdf:about="">
        <dc:format>image/svg+xml</dc:format>
        <dc:type
           rdf:resource="http://purl.org/dc/dcmitype/StillImage" />
      </cc:Work>
    </rdf:RDF>
  </metadata>
  <g
     inkscape:groupmode="layer"
     id="layer6"
     inkscape:label="m"
     sodipodi:insensitive="true"
     style="display:none">
    <path
       d="m 522.08938,672.03853 c -39.16534,-0.11 -142.41656,7.63702 -232.62654,83.73255 C 175.75158,660.82928 41.973247,673.7335 41.973247,673.7335 l 0.588723,44.76482 c 0,0 93.31375,-12.31398 187.75729,48.97613 11.10848,6.64187 25.56909,17.19523 43.49952,34.32437 6.02516,5.75589 11.15859,10.93633 15.64406,15.67255 0.0628,-0.0699 0.1222,-0.14139 0.18517,-0.21128 2.32062,2.544 4.54787,5.13169 6.73004,7.73895 8.70157,9.83673 13.79592,17.10803 16.77404,22.48092 2.98872,4.49693 5.83258,9.03366 8.49859,13.60251 -3.27049,3.88354 -6.49318,7.87898 -9.6262,12.09031 -9.24311,12.4245 -16.44071,26.59716 -22.17706,41.06627 -5.62636,-13.86402 -12.60561,-27.40325 -21.47915,-39.33093 -3.46679,-4.66007 -7.05101,-9.04384 -10.68496,-13.3034 5.26716,-9.16533 11.17575,-18.22747 17.77347,-27.0412 l -2.24572,-2.27183 -30.51424,-28.63411 c -6.62243,8.38407 -12.65043,16.96164 -18.11768,25.64061 C 141.65307,762.43421 41.394016,769.65133 41.394016,769.65133 l 0.538878,40.61997 v 208.3153 H 86.612243 V 817.54495 c 33.082597,2.76237 78.962277,13.74789 117.810037,49.15181 -35.64375,77.87141 -33.90656,152.16754 -33.90656,152.16754 l 43.00574,-1.0207 c 0,0 0.7035,-52.63755 23.41388,-112.25982 24.34172,39.04215 30.51977,86.61792 32.07151,104.95292 -0.26675,3.9991 -0.41068,6.8677 -0.41068,6.8677 l 0.92109,-0.012 c 0.016,0.3722 0.064,1.2842 0.064,1.2842 l 18.40017,0.1995 v -70.22979 a 6.2826188,6.2826188 0 0 1 -5.06354,-6.14842 6.2826188,6.2826188 0 0 1 6.28137,-6.28137 6.2826188,6.2826188 0 0 1 6.28373,6.28137 6.2826188,6.2826188 0 0 1 -5.08492,6.15318 v 70.25123 l 21.39842,0.2328 c 0,0 -0.18377,-3.6314 -0.54837,-8.6553 1.28644,-16.71028 6.96923,-65.30428 31.46856,-105.404 23.31464,60.27984 24.02159,113.8622 24.02159,113.8622 l 43.00575,1.0208 c 0,0 1.74793,-75.52246 -34.81101,-154.08812 39.02517,-36.11859 85.37989,-47.25123 118.7477,-50.05151 v 201.82733 h 44.6794 V 816.05177 l 0.63858,-48.13339 c 0,0 -101.29714,-7.27278 -184.4694,60.71274 -7.63234,-11.93221 -16.27478,-23.67372 -26.16049,-34.94632 -2.09847,-2.39288 -4.24252,-4.63216 -6.36921,-6.93183 103.03188,-84.25494 215.6982,-69.35139 215.6982,-69.35139 l 0.58873,-44.76482 c 0,0 -5.87067,-0.56922 -16.19719,-0.59823 z"
       id="path1536"
       style="display:inline;stroke-width:1.21544"
       sodipodi:insensitive="true"
       inkscape:label="marlowe" />
  </g>
  <g
     inkscape:groupmode="layer"
     id="layer7"
     inkscape:label="g"
     sodipodi:insensitive="true"
     style="display:none">
    <path
       d="m 356.94439,515.6681 a 39.63981,39.63981 0 0 0 -39.63981,39.63981 39.63981,39.63981 0 0 0 26.17993,37.08205 l -32.193,102.10461 a 67.534491,67.534491 0 0 0 -12.77455,-1.23586 67.534491,67.534491 0 0 0 -67.53449,67.53449 67.534491,67.534491 0 0 0 40.13588,61.12284 l -35.88916,113.82107 a 43.236757,43.236757 0 0 0 -16.58828,-3.76211 43.236757,43.236757 0 0 0 -31.85465,14.69862 l -81.48469,-63.12146 a 34.207686,34.207686 0 0 0 6.78729,-20.40488 34.207686,34.207686 0 0 0 -34.205972,-34.20597 34.207686,34.207686 0 0 0 -34.208835,34.20597 34.207686,34.207686 0 0 0 34.208835,34.20884 34.207686,34.207686 0 0 0 27.249492,-13.55163 l 81.43595,63.08706 a 43.236757,43.236757 0 0 0 -11.16303,28.31906 43.236757,43.236757 0 0 0 43.23561,43.23859 43.236757,43.236757 0 0 0 43.23561,-43.23859 43.236757,43.236757 0 0 0 -26.11112,-39.20108 l 35.90351,-113.86409 a 67.534491,67.534491 0 0 0 26.84805,6.18225 67.534491,67.534491 0 0 0 60.30848,-38.16594 l 95.97112,39.77458 a 44.044233,44.044233 0 0 0 -3.70763,16.65423 44.044233,44.044233 0 0 0 44.04424,44.04423 44.044233,44.044233 0 0 0 44.04423,-44.04423 44.044233,44.044233 0 0 0 -44.04423,-44.04424 44.044233,44.044233 0 0 0 -40.1789,27.08032 l -95.99405,-39.78605 a 67.534491,67.534491 0 0 0 7.09124,-29.04739 67.534491,67.534491 0 0 0 -54.17786,-66.16099 l 32.15,-101.96698 a 39.63981,39.63981 0 0 0 12.92079,2.28249 39.63981,39.63981 0 0 0 39.63981,-39.63981 39.63981,39.63981 0 0 0 -39.63981,-39.63981 z m -58.45037,86.606 A 159.29331,159.29331 0 0 0 139.20071,761.56741 159.29331,159.29331 0 0 0 210.02419,893.8148 l 20.90953,-63.31071 a 97.871579,97.871579 0 0 1 -30.65605,-70.66577 97.871579,97.871579 0 0 1 85.98375,-96.83135 l 19.99768,-60.54075 a 159.29331,159.29331 0 0 0 -7.76508,-0.19212 z m 78.18137,20.56258 -19.48726,58.99518 a 97.871579,97.871579 0 0 1 38.83405,78.00646 97.871579,97.871579 0 0 1 -0.5907,6.75001 l 58.96938,25.76416 a 159.29331,159.29331 0 0 0 3.38647,-30.78508 159.29331,159.29331 0 0 0 -81.11194,-138.73073 z m -10.95657,207.2545 A 97.871579,97.871579 0 0 1 299.122,857.62169 l -20.42208,61.82537 a 159.29331,159.29331 0 0 0 19.7941,1.41366 159.29331,159.29331 0 0 0 127.47307,-64.44624 z"
       id="path1533"
       style="display:inline;stroke-width:1.46814"
       sodipodi:insensitive="true"
       inkscape:label="spo_guild_operators" />
  </g>
  <g
     inkscape:groupmode="layer"
     id="layer8"
     inkscape:label="gimbalabs"
     sodipodi:insensitive="true"
     style="display:inline">
    <polygon
       points="230.601,122.542 261.701,173.077 251.902,196.659 269.986,173.038 239.499,116.634 249.653,89.364 231.172,111.722 166.405,111.722 129.005,172.494 164.053,237.34 228.588,237.34 257.396,284.151 230.373,334.148 171.693,334.973 146.516,299.833 166.524,343.981 236.616,344.966 274.043,284.151 241.6,224.126 249.653,200.555 233.275,219.305 174.46,219.305 145.651,172.494 172.65,122.542 "
       id="polygon1275"
       transform="matrix(2.1443583,0,0,2.1443583,-139.03155,282.55003)"
       style="display:inline"
       inkscape:label="gimbalabs"
       sodipodi:insensitive="true" />
  </g>
  <g
     inkscape:groupmode="layer"
     id="layer4"
     inkscape:label="p"
     sodipodi:insensitive="true"
     style="display:none">
    <path
       d="m 46.160745,517.83287 491.681475,1.95159 -1.90779,498.41394 -314.60438,-1.2498 V 700.9168 H 353.13681 V 829.43445 H 272.29328 V 959.68011 H 487.58714 V 570.06762 H 89.3325 v 42.35577 H 448.27316 V 917.32451 H 309.19683 v -45.53369 h 86.29601 V 658.56116 H 89.3325 v 357.86404 l -45.078779,-0.1786 z M 314.64968,747.36629 h -42.3564 v 42.35532 h 42.3564 z M 178.97399,700.9168 h -47.28572 v 315.6766 l 47.28572,0.1879 z"
       id="path877"
       sodipodi:insensitive="true"
       style="display:inline;stroke-width:1.19135"
       inkscape:label="plutus" />
  </g>
  <g
     inkscape:groupmode="layer"
     id="layer5"
     inkscape:label="i"
     sodipodi:insensitive="true"
     style="display:none">
    <path
       d="m 295.47433,769.39318 c 2.47105,89.25036 96.19926,161.68427 213.65872,162.79517 0,0.085 -0.14433,0.1518 -0.14433,0.2174 0,8.3784 6.75117,15.2067 15.14605,15.2067 8.37816,0 15.18115,-6.8283 15.18115,-15.2067 0,-8.37844 -6.8459,-15.2067 -15.23253,-15.2067 -6.6476,0 -12.30522,4.28785 -14.36237,10.25587 -110.02088,-0.73767 -200.30484,-64.97741 -209.38018,-146.39239 5.93284,11.40971 17.09196,29.81985 35.08873,48.40181 26.43521,27.27862 73.1662,59.80119 145.59976,59.80119 0.30363,0 0.60253,-0.01 0.86075,-0.17285 1.36075,6.99191 7.54262,12.32139 14.93116,12.32139 8.39553,0 15.20683,-6.83619 15.20683,-15.21464 0,-8.39579 -6.8113,-15.20607 -15.20683,-15.20607 -7.85321,0 -14.34581,5.98406 -15.1287,13.63844 -0.2071,-0.0111 -0.43873,-0.1201 -0.66502,-0.1201 -70.78068,0 -116.40124,-31.73915 -142.19926,-58.36441 -16.89404,-17.41887 -27.70845,-34.95906 -33.66791,-46.17063 7.88736,7.12951 20.26962,17.45456 35.89814,27.701 25.77261,16.86876 65.95037,36.96617 111.13072,37.01765 1.12833,7.28454 7.41406,12.87334 15.00877,12.87334 8.38707,0 15.21551,-6.81997 15.21551,-15.21543 0,-8.3782 -6.82844,-15.206 -15.21551,-15.206 -7.55987,0 -13.83777,5.55382 -14.99165,12.79481 -67.48242,-0.0931 -124.67481,-46.01554 -145.18579,-64.73524 22.74926,8.15391 77.10087,26.06448 117.79579,26.83966 0.60996,7.81825 7.16408,13.97508 15.14572,13.97508 8.37874,0 15.20725,-6.91447 15.20725,-15.29285 0,-8.3779 -6.82851,-15.36119 -15.20725,-15.36119 -7.17258,0 -13.1833,4.97689 -14.78442,11.65864 -39.56709,-0.67383 -92.68656,-16.77369 -115.69416,-26.62428 h 60.37862 17.27303 c 1.37769,7.38716 7.54268,12.39936 14.90537,12.39936 8.38684,0 15.21488,-6.52673 15.21488,-14.90448 0,-8.37936 -6.82804,-15.34544 -15.21488,-15.34544 -7.77594,0 -14.20836,5.54542 -15.09484,12.93374 h -17.08317 -61.48926 c 22.37006,-7.38832 76.60113,-25.58295 116.79584,-26.2722 1.60167,6.6918 7.61252,12.26183 14.78482,12.26183 8.37828,0 15.20713,-6.89622 15.20713,-15.27503 0,-8.37854 -6.82885,-15.2496 -15.20713,-15.2496 -7.98209,0 -14.5349,6.16526 -15.14621,13.98483 -40.6945,0.78207 -95.04622,18.69311 -117.79547,26.85599 20.51088,-18.72798 77.70304,-64.63298 145.18621,-64.7278 1.15401,7.24234 7.4309,12.79674 14.99134,12.79674 8.3876,0 15.2155,-6.82028 15.2155,-15.20699 0,-8.38755 -6.8279,-15.20608 -15.2155,-15.20608 -7.59424,0 -13.88055,5.59678 -15.00851,12.88095 -45.18085,0.007 -85.35829,20.15783 -111.13119,37.01866 -15.35191,10.05628 -27.57119,20.19142 -35.45825,27.3044 6.04389,-11.28051 16.80799,-28.47664 33.37462,-45.53485 25.78993,-26.55564 71.37502,-58.21707 142.05225,-58.21707 0.26281,0 0.50701,-0.007 0.72225,-0.12662 0.96511,7.46577 7.35337,13.25245 15.06894,13.25245 8.39501,0 15.20666,-6.81913 15.20666,-15.21529 0,-8.38667 -6.81165,-15.19836 -15.20666,-15.19836 -7.53485,0 -13.77805,5.50314 -14.97474,12.69314 -0.2575,-0.0901 -0.52885,-0.15138 -0.81796,-0.15138 -72.43379,0 -119.16476,32.52324 -145.59978,59.80172 -18.31451,18.90058 -29.53496,37.60356 -35.37273,48.96172 7.20773,-82.62116 98.02491,-148.31251 209.1212,-149.27728 1.39441,6.96649 7.55133,12.21915 14.90505,12.21915 8.39487,0 15.22404,-6.81969 15.22404,-15.19738 0,-8.38817 -6.80224,-15.21669 -15.18042,-15.21669 -7.79308,0 -13.9585,5.89965 -14.82799,13.45069 C 390.9742,603.98032 295.47301,677.421 295.47301,767.55026 Z M 513.74002,606.28783 c 0.16168,-0.32441 0.25828,-0.6772 0.25828,-1.05139 0,-0.46295 -0.13726,-0.88665 -0.36751,-1.25667 0.35243,-5.46786 4.89915,-9.81542 10.44434,-9.81542 5.7782,0 10.48002,4.70084 10.48002,10.47858 0,5.76061 -4.70182,10.46243 -10.48002,10.46243 -5.20875,10e-4 -9.52358,-3.82285 -10.32364,-8.81753 m -27.38278,44.5518 c 0,-5.76974 4.70191,-10.46263 10.47113,-10.46263 5.76886,0 10.47032,4.69289 10.47032,10.46263 0,5.77804 -4.70146,10.47924 -10.47032,10.47924 -5.76922,0 -10.47113,-4.7012 -10.47113,-10.47924 m -29.62079,43.84589 c 0,-5.77727 4.69269,-10.46205 10.47072,-10.46205 5.76859,0 10.47042,4.68478 10.47042,10.46205 0,5.76976 -4.70183,10.47064 -10.47042,10.47064 -5.77803,-10e-4 -10.47072,-4.70088 -10.47072,-10.47064 m -65.15846,73.44153 c 0,-5.7688 4.69281,-10.46188 10.47079,-10.46188 5.7774,0 10.47024,4.69308 10.47024,10.46188 0,5.76992 -4.69284,10.47101 -10.47024,10.47101 -5.77798,0 -10.47079,-4.70109 -10.47079,-10.47101 m 65.1581,74.25125 c 0,-5.77826 4.69273,-10.47097 10.47045,-10.47097 5.76896,0 10.47071,4.69271 10.47071,10.47097 0,5.76872 -4.70175,10.45376 -10.47071,10.45376 -5.77772,-10e-4 -10.47045,-4.69263 -10.47045,-10.45376 m 29.62053,43.82888 c 0,-5.76953 4.70197,-10.47979 10.47079,-10.47979 5.76956,0 10.47096,4.71026 10.47096,10.47979 0,5.76925 -4.7014,10.46199 -10.47096,10.46199 -5.76882,0 -10.47079,-4.69274 -10.47079,-10.46199 m 27.2447,46.20467 c 0,-0.4949 0.006,-0.9722 0.11935,-1.463 0.18369,-0.3344 0.28785,-0.6943 0.28785,-1.0935 0,-0.012 -0.002,-0.138 -0.002,-0.1895 1.20613,-4.44227 5.26977,-7.71548 10.08338,-7.71548 5.77846,0 10.47964,4.69284 10.47964,10.46198 0,5.7694 -4.70118,10.4713 -10.47964,10.4713 -5.76899,0 -10.46993,-4.7102 -10.46993,-10.4713 M 429.72271,738.20357 c 0.125,-0.28633 0.19676,-0.59596 0.19676,-0.92949 0,-0.47345 -0.15933,-0.91201 -0.40276,-1.29129 0.0997,-5.69223 4.74451,-10.28933 10.46994,-10.28933 5.7702,0 10.463,4.69298 10.463,10.46173 0,5.76923 -4.6928,10.4698 -10.463,10.4698 -5.07085,-0.002 -9.30737,-3.63278 -10.26353,-8.42142 m -0.20724,62.8771 c 0.23977,-0.36694 0.40146,-0.82597 0.40146,-1.29205 0,-0.34933 -0.0111,-0.64813 -0.1986,-0.93008 0.95542,-4.78754 5.20064,-8.42146 10.26416,-8.42146 5.76894,0 10.46196,4.711 10.46196,10.47964 0,5.76961 -4.69302,10.47071 -10.46196,10.47071 -5.72666,-10e-4 -10.36751,-4.61547 -10.47108,-10.30676 M 73.684633,602.88606 c -0.877618,-7.55138 -7.448698,-13.45002 -15.233644,-13.45002 -8.403107,0 -15.274524,6.81934 -15.274524,15.21559 0,8.38694 6.777643,15.20648 15.163371,15.20648 7.362521,0 13.511196,-5.27026 14.89797,-12.21927 111.078004,0.96421 201.904664,66.65786 209.094054,149.3114 -5.83706,-11.3494 -17.07467,-30.05192 -35.38089,-48.95175 -26.43534,-27.28867 -73.15775,-59.81185 -145.59987,-59.81185 -0.28457,0 -0.55147,0.007 -0.80733,0.15337 -1.205954,-7.18979 -7.4486,-12.69349 -14.982431,-12.69349 -8.387902,0 -15.207274,6.82028 -15.207274,15.20811 0,8.38653 6.819372,15.20526 15.207274,15.20526 7.723147,0 14.113231,-5.78541 15.059481,-13.25909 0.23978,0.0837 0.47909,0.12734 0.72967,0.12734 70.68607,0 116.27172,31.6618 142.06101,58.22668 16.56694,17.05689 27.32237,34.26133 33.38366,45.53316 -7.91343,-7.11268 -20.12299,-17.24691 -35.47574,-27.30441 -25.76391,-16.87697 -65.94223,-36.9591 -111.12265,-37.01828 -1.14549,-7.27627 -7.42268,-12.88125 -15.0172,-12.88125 -8.39545,0 -15.20672,6.81921 -15.20672,15.21541 0,8.38639 6.81127,15.20544 15.20672,15.20544 7.56992,0 13.83852,-5.5526 15.0002,-12.80338 67.48243,0.0856 124.66662,45.99898 145.17749,64.71842 -22.74911,-8.15423 -77.09255,-26.08221 -117.78623,-26.85657 -0.62264,-7.83559 -7.16437,-14.01013 -15.14713,-14.01013 -8.39472,0 -15.21481,6.82697 -15.21481,15.20761 0,8.3855 6.82009,15.224 15.21481,15.224 7.16425,0 13.17523,-5.43451 14.76792,-12.12551 40.21289,0.69412 94.44346,18.87521 116.82173,26.27264 h -61.50649 -17.0839 c -0.88592,-7.38852 -7.31049,-13.01133 -15.10287,-13.01133 -8.37863,0 -15.19802,7.0334 -15.19802,15.42153 0,8.38738 6.81939,14.9739 15.19802,14.9739 7.36149,0 13.53633,-5.0893 14.92177,-12.45968 h 17.265 60.37871 c -22.99057,9.84192 -76.11939,25.9451 -115.70298,26.61615 -1.59233,-6.6904 -7.60197,-11.51247 -14.7663,-11.51247 -8.39682,0 -15.21639,6.90637 -15.21639,15.2843 0,8.39418 6.81957,15.24934 15.21639,15.24934 7.98149,0 14.52525,-6.17458 15.14565,-13.98399 40.69493,-0.78036 95.03698,-18.69384 117.78695,-26.85747 -20.51969,18.72826 -77.69537,64.64225 -145.17846,64.72749 -1.16264,-7.24955 -7.43138,-12.79485 -14.99985,-12.79485 -8.39503,0 -15.2068,6.82806 -15.2068,15.20596 0,8.39631 6.81177,15.21534 15.2068,15.21534 7.59427,0 13.87205,-5.58855 15.01695,-12.87203 45.18043,-0.007 85.35909,-20.16604 111.12237,-37.01938 15.63701,-10.23727 28.01053,-20.571 35.8987,-27.70053 -5.94112,11.22041 -16.77393,28.75172 -33.66794,46.17114 -25.80715,26.61578 -71.42624,58.3643 -142.19909,58.3643 -0.22703,0 -0.448,0.007 -0.68748,0.11935 -0.77033,-7.65599 -7.257991,-13.64819 -15.111188,-13.64819 -8.38762,0 -15.206864,6.81924 -15.206864,15.21451 0,8.37874 6.819244,15.21589 15.206864,15.21589 7.396527,0 13.570191,-5.32154 14.914018,-12.3222 0.27801,0.10574 0.56815,0.17101 0.87761,0.17101 72.44223,0 119.15613,-32.52562 145.58252,-59.80279 18.01373,-18.58248 29.19025,-36.99203 35.10634,-48.40212 -9.0746,81.41466 -99.34323,145.65082 -209.362298,146.40038 -2.05012,-5.96726 -7.715096,-10.25438 -14.362646,-10.25438 -8.396214,0 -15.215554,6.82776 -15.215554,15.2067 0,8.3953 6.81934,15.2061 15.215554,15.2061 8.394826,0 15.214315,-6.8108 15.214315,-15.2061 0,-0.012 0.312654,-0.1378 0.312654,-0.2169 C 191.3033,931.12015 285.64293,858.68671 288.09751,769.43654 v -1.90304 c 0,-90.12868 -96.11389,-163.56198 -214.418019,-164.65568 m -5.045904,3.40165 c -0.797839,4.99445 -5.114654,8.82635 -10.324657,8.82635 -5.777154,0 -10.47894,-4.69274 -10.47894,-10.46178 0,-5.77877 4.701786,-10.47948 10.47894,-10.47948 5.554902,0 10.083528,4.34791 10.427656,9.81601 -0.224044,0.35617 -0.355903,0.78997 -0.355903,1.24843 0,0.36314 0.08243,0.72921 0.251983,1.05047 m 16.920331,55.02242 c -5.770024,0 -10.471071,-4.69285 -10.471071,-10.46132 0,-5.77026 4.701047,-10.47094 10.471071,-10.47094 5.76912,0 10.47858,4.70068 10.47858,10.47094 0,5.76847 -4.70946,10.46132 -10.47858,10.46132 m 29.612213,43.83823 c -5.76971,0 -10.47039,-4.70139 -10.47039,-10.46237 0,-5.77767 4.70068,-10.47956 10.47039,-10.47956 5.77758,0 10.47914,4.70189 10.47914,10.47956 0,5.76978 -4.70156,10.46237 -10.47914,10.46237 m 37.51729,33.06505 c -0.95626,4.77921 -5.20148,8.41281 -10.25605,8.41281 -5.7776,0 -10.47091,-4.71091 -10.47091,-10.47911 0,-5.76956 4.69331,-10.4622 10.47091,-10.4622 5.70939,0 10.36763,4.60719 10.45338,10.29049 -0.2407,0.36705 -0.38015,0.82525 -0.38015,1.29969 -9.4e-4,0.34889 0.007,0.65615 0.19184,0.93832 m 27.64057,40.38419 c -5.7698,0 -10.45377,-4.70151 -10.45377,-10.47121 0,-5.76926 4.68397,-10.47 10.45377,-10.47 5.78595,0 10.4785,4.70074 10.4785,10.47 0,5.7697 -4.69255,10.47121 -10.4785,10.47121 m -37.90569,32.78243 c -5.77678,0 -10.46975,-4.69334 -10.46975,-10.47144 0,-5.76969 4.69297,-10.47913 10.46975,-10.47913 5.0635,0 9.30082,3.6336 10.25586,8.42132 -0.13482,0.28636 -0.18863,0.59629 -0.18863,0.92978 0,0.4737 0.14351,0.91291 0.38119,1.29165 -0.0837,5.70118 -4.7442,10.30782 -10.45352,10.30782 m -27.25299,41.46047 c -5.76876,0 -10.47047,-4.7013 -10.47047,-10.47078 0,-5.77832 4.70171,-10.47114 10.47047,-10.47114 5.77854,0 10.4797,4.69282 10.4797,10.47114 0,5.76948 -4.70116,10.47078 -10.4797,10.47078 m -29.612217,43.82811 c -5.769208,0 -10.47063,-4.69283 -10.47063,-10.46176 0,-5.77787 4.701422,-10.46201 10.47063,-10.46201 5.769684,0 10.479546,4.68414 10.479546,10.46201 0,5.76893 -4.709862,10.46176 -10.479546,10.46176 M 58.31102,942.86575 c -5.776661,0 -10.47879,-4.7016 -10.47879,-10.4719 0,-5.7676 4.702129,-10.46032 10.47879,-10.46032 4.822769,0 8.860407,3.28077 10.083714,7.71482 0,0.012 -0.0011,0.1272 -0.0011,0.1927 0,0.3843 0.103779,0.7615 0.28589,1.0934 0.0074,0.4884 0.09883,0.9641 0.09883,1.4632 0,5.7693 -4.692813,10.4712 -10.461845,10.4712"
       id="path1539"
       style="display:inline;stroke-width:1.23812"
       inkscape:label="iog_logo"
       sodipodi:insensitive="true" />
  </g>
  <g
     id="layer1"
     inkscape:groupmode="layer"
     inkscape:label="c"
     style="display:none"
     sodipodi:insensitive="true">
    <path
       d="m 367.67134,926.93371 c -8.16956,4.21636 -11.46372,14.23076 -7.24711,22.39993 4.21646,8.16973 14.23068,11.46372 22.39996,7.24749 8.16966,-4.08508 11.46371,-14.099 7.37908,-22.26872 -4.21668,-8.1693 -14.2307,-11.59524 -22.53193,-7.3787 0,0 0,0 0,0 z M 287.6893,905.85108 c -10.80488,-0.65856 -20.02848,7.64243 -20.55562,18.44729 -0.65875,10.80463 7.6425,20.02849 18.44735,20.55556 10.80488,0.52677 20.02857,-7.64247 20.55555,-18.44747 0.65892,-10.673 -7.64238,-20.02804 -18.44728,-20.55538 0,0 0,0 0,0 z m -0.13177,86.04323 c -7.51071,-0.3953 -13.96726,5.40251 -14.49434,12.91309 -0.52708,7.5107 5.40242,13.9673 12.91314,14.4944 7.51071,0.3953 13.96727,-5.2707 14.49436,-12.7814 0.39532,-7.64248 -5.40245,-14.09902 -12.91316,-14.62609 0,0 0,0 0,0 z m -77.61021,-63.64293 c -7.64242,-5.00721 -18.05186,-2.89887 -23.05902,4.74359 -5.00699,7.64218 -2.89885,18.05201 4.74361,23.05878 7.6423,5.00733 18.05187,2.89919 23.05902,-4.74361 0,0 0,0 0,0 5.1389,-7.64211 3.03044,-18.05163 -4.74361,-23.05876 z m 66.5418,-50.99347 c 10.01427,-15.41664 5.79776,-35.9722 -9.6189,-46.11812 -15.4166,-10.0144 -35.97203,-5.79761 -46.11804,9.61901 -10.14611,15.4167 -5.79781,35.97214 9.61869,46.11797 5.40267,3.55771 11.7273,5.40247 18.1837,5.40247 11.33212,0.13174 21.74152,-5.53422 27.93455,-15.02133 z m 124.91419,108.57515 c -5.27053,2.63532 -7.3788,9.22366 -4.7436,14.49434 2.63545,5.2707 9.22368,7.3789 14.49437,4.7436 5.27059,-2.6353 7.37893,-9.09198 4.74361,-14.36259 -2.63543,-5.40244 -9.09192,-7.64245 -14.49438,-4.87535 0.13178,0 0,0 0,0 z m -225.58341,1.05411 c -5.00694,-3.29417 -11.59536,-1.84471 -14.88945,3.03064 -3.29426,5.00721 -1.84482,11.59539 3.03055,14.88959 5.00715,3.2942 11.59551,1.8448 14.88955,-3.0306 0,0 0,0 0,0 3.42606,-4.87528 1.9765,-11.59543 -3.03065,-14.88963 z M 481.25344,886.48148 c -6.3248,-4.08476 -14.75742,-2.37168 -18.9742,3.953 -4.08453,6.32481 -2.37181,14.75804 3.95298,18.9743 6.32462,4.08473 14.75776,2.3718 18.97424,-3.95301 4.21633,-6.32467 2.3718,-14.88937 -3.95302,-18.97429 0,0 0,0 0,0 z m 43.35103,-106.73037 c -5.92952,-0.39531 -11.06836,4.2167 -11.33181,10.1462 -0.26347,5.92951 4.2164,11.06841 10.1459,11.33173 5.92945,0.3953 10.93668,-4.21632 11.33198,-10.14583 0.26346,-5.92951 -4.21664,-10.9368 -10.14607,-11.3321 z m -45.9863,11.85891 c 0.5268,-9.22341 -6.45663,-16.99782 -15.67985,-17.52472 -9.22383,-0.52714 -16.99792,6.4564 -17.52514,15.68008 -0.52707,9.22384 6.45673,16.99787 15.68015,17.52515 0,0 0,0 0,0 9.0917,0.5268 16.99772,-6.58861 17.52484,-15.68051 z m -63.77471,49.93937 c -9.09191,-5.92941 -21.21426,-3.42608 -27.01199,5.66582 -5.92951,9.09192 -3.42608,21.21443 5.66584,27.01208 9.0919,5.92951 21.21447,3.42594 27.01219,-5.66597 5.9295,-8.96015 3.42569,-21.08242 -5.66604,-27.01193 0,0 0,0 0,0 z m -58.10878,2.37179 c -8.30125,-16.47099 -28.32943,-23.05912 -44.66869,-14.75782 -16.47068,8.30124 -23.059,28.32966 -14.75769,44.66864 8.3013,16.47072 28.32984,23.05921 44.66858,14.7579 0,0 0,0 0,0 16.33901,-8.16958 23.05911,-27.93453 14.88975,-44.4052 0,-0.13189 0,-0.13189 -0.13195,-0.26352 z M 298.8895,704.77644 c -10.0143,15.41659 -5.79777,35.97209 9.61889,45.98623 15.41661,10.01407 35.97204,5.79774 45.98644,-9.61885 10.0141,-15.41672 5.79755,-35.97208 -9.6191,-45.98644 -5.40214,-3.55771 -11.72688,-5.40219 -18.18377,-5.40219 -11.20004,0 -21.60945,5.66574 -27.80246,15.02125 z M 180.30011,875.94035 c 9.61884,-4.87547 13.57184,-16.60244 8.69661,-26.2215 -4.87552,-9.61905 -16.60262,-13.57205 -26.22161,-8.69655 -9.61893,4.8754 -13.57192,16.60255 -8.69662,26.22145 4.87546,9.61887 16.60261,13.57188 26.22162,8.6966 z M 286.23988,676.18303 c 10.80487,0.65884 20.02854,-7.64229 20.55562,-18.44699 0.65882,-10.80489 -7.64249,-20.02854 -18.44736,-20.55562 -10.80487,-0.65881 -20.02856,7.64249 -20.55557,18.44717 -0.52704,10.80505 7.64242,20.02857 18.44731,20.55544 0,0 0,0 0,0 z m 0.13175,-86.04311 c 7.51071,0.39529 13.96729,-5.40241 14.49438,-12.91307 0.52703,-7.51067 -5.40247,-13.96718 -12.91318,-14.49423 -7.5107,-0.3953 -13.96726,5.27062 -14.49433,12.78126 -0.39531,7.64244 5.40243,14.09898 12.91313,14.62604 0,0 0,0 0,0 z m 108.70688,115.95412 c -9.61885,4.87536 -13.57186,16.60242 -8.69661,26.22126 4.87551,9.61912 16.60261,13.572 26.2216,8.69661 9.61892,-4.87524 13.57187,-16.60262 8.6966,-26.22133 -4.87543,-9.61884 -16.60261,-13.44015 -26.22159,-8.69654 z m 84.33026,-10.54137 c 6.72011,-3.42568 9.35539,-11.72686 5.9295,-18.44691 -3.42618,-6.72011 -11.72749,-9.35562 -18.44695,-5.92951 -6.7201,3.42564 -9.35569,11.59513 -6.06148,18.31524 3.55771,6.72004 11.727,9.48714 18.57893,6.06118 0,0 0,0 0,0 z m -260.76484,42.56051 c 5.66596,11.19997 17.12961,18.31537 29.77904,18.31537 18.31542,0 33.20505,-14.88943 33.20505,-33.33679 0,-5.13877 -1.18589,-10.27761 -3.5577,-15.02122 -8.30131,-16.47087 -28.32985,-23.05889 -44.66858,-14.75765 -16.47096,8.43285 -23.05911,28.46134 -14.75781,44.80029 z m 149.29101,19.50128 c -18.31567,-1.05405 -34.12762,13.04473 -35.0498,31.36034 -1.05426,18.31573 13.04474,34.12708 31.36025,35.04966 0.65885,0 1.31774,0 1.84475,0 18.31525,0 33.20502,-14.88942 33.20502,-33.33655 0.13165,-17.52506 -13.70386,-32.15101 -31.36022,-33.07345 z m 31.49187,-162.46743 c 5.00716,3.29416 11.5955,1.84475 14.88968,-3.16239 3.29401,-5.0071 1.84472,-11.5954 -3.16241,-14.88956 -5.00723,-3.29413 -11.59537,-1.84472 -14.88968,3.03063 -3.1624,5.00709 -1.71283,11.72716 3.16241,15.02132 0,0 0,0 0,0 z m -33.99553,58.63601 c 7.64243,5.00694 18.05187,2.89881 23.05902,-4.74361 5.00701,-7.64249 2.89887,-18.05204 -4.74361,-23.05921 -7.64229,-5.00711 -18.05186,-2.89884 -23.059,4.74361 0,0 0,0 0,0 -5.13892,7.77427 -3.03047,18.05208 4.74359,23.05921 0,0 0,0 0,0 z m -204.89613,86.70194 c 9.09192,5.9294 21.21424,3.42582 27.012,-5.66596 5.92951,-9.09192 3.42606,-21.21426 -5.66584,-27.01203 -9.09192,-5.92951 -21.21447,-3.42585 -27.01222,5.66593 -5.92951,8.95987 -3.42572,21.08256 5.66606,27.01206 0,0 0,0 0,0 z m -64.565336,145.9965 c -6.720043,3.42595 -9.48714,11.59563 -6.061234,18.44736 3.425925,6.71998 11.59545,9.48702 18.4472,6.06114 6.72009,-3.42598 9.48719,-11.59534 6.06111,-18.44707 0,0 0,0 0,0 -3.42578,-6.72012 -11.72708,-9.48722 -18.447076,-6.06143 0,0 0,0 0,0 z M 114.28527,774.87589 c -9.22366,-0.52714 -16.997795,6.45642 -17.524865,15.6801 -0.527069,9.22383 6.456615,16.99786 15.679995,17.52514 9.22372,0.5268 16.99782,-6.45679 17.52503,-15.68052 0,0 0,0 0,0 0.52707,-9.0918 -6.45672,-16.99781 -15.68016,-17.52472 z M 94.125094,695.55267 c 6.324776,4.08498 14.757616,2.37181 18.974276,-3.953 4.08463,-6.32474 2.37179,-14.7578 -3.95298,-18.9743 -6.32468,-4.08463 -14.757743,-2.37179 -18.974276,3.95296 0,0 0,0 0,0 -4.216512,6.3248 -2.371793,14.88959 3.95298,18.97434 z M 207.70728,655.10066 c 8.16955,-4.08473 11.4637,-14.09902 7.37894,-22.26854 -4.08484,-8.16955 -14.09899,-11.46371 -22.26841,-7.37894 -8.16939,4.08474 -11.46372,14.09905 -7.37879,22.2685 4.08463,8.16959 14.09877,11.46361 22.26826,7.37898 z M 173.9753,596.20117 c 5.27055,-2.63533 7.37879,-9.22363 4.7436,-14.49426 -2.63546,-5.27066 -9.22369,-7.37887 -14.49436,-4.74359 -5.27059,2.63531 -7.37894,9.09186 -4.7436,14.36248 2.63542,5.40242 9.0919,7.64246 14.49436,4.87537 -0.13179,0 0,0 0,0 z M 51.959979,780.8054 c -5.929441,-0.39531 -11.068322,4.21639 -11.331871,10.14589 -0.263519,5.92945 4.216529,11.06835 10.145971,11.33183 5.929483,0.39531 10.936596,-4.21648 11.331897,-10.14593 0.395294,-5.92951 -4.216525,-10.93649 -10.145997,-11.33179 0,0 0,0 0,0 z m 124.123461,8.56469 c -1.05402,18.31574 13.0449,33.99558 31.36023,35.04967 0.65891,0 1.31775,0 1.9765,0 18.44737,0 33.33696,-14.8894 33.20489,-33.33655 0,-18.44751 -14.88928,-33.33689 -33.33658,-33.20512 -17.65657,0 -32.28269,13.8354 -33.20504,31.492 z"
       id="path871"
       sodipodi:insensitive="true"
       style="display:inline;stroke-width:1.0604"
       inkscape:label="cardano" />
  </g>
  <g
     inkscape:groupmode="layer"
     id="layer2"
     inkscape:label="b"
     style="display:none"
     sodipodi:insensitive="true">
    <path
       d="m 289.56254,952.01285 c -6.4408,-0.0106 -11.86829,5.0545 -12.32457,11.55643 -0.47099,6.71167 4.82634,12.48141 11.53804,12.95241 6.71167,0.35325 12.48141,-4.70905 12.95241,-11.42075 0.35325,-6.82942 -4.82637,-12.601 -11.53804,-13.072 -0.20973,-0.0106 -0.42007,-0.0158 -0.62784,-0.0161 z M 184.93826,945.969 c -3.07596,0.0437 -6.06454,1.57076 -7.90437,4.29371 -2.94373,4.47438 -1.64987,10.36284 2.70685,13.30657 4.47447,2.94373 10.36285,1.64757 13.30658,-2.70915 3.06148,-4.35672 1.76532,-10.36055 -2.70915,-13.30428 -1.67793,-1.10389 -3.55433,-1.61307 -5.39991,-1.58685 z m 211.18728,-0.41626 c -1.4099,0.0243 -2.84162,0.36474 -4.19942,1.0602 -4.7099,2.35499 -6.59579,8.24244 -4.24081,12.95241 2.35499,4.70997 8.24244,6.59349 12.95241,4.23851 4.7099,-2.35498 6.59579,-8.12285 4.24081,-12.83282 -1.69265,-3.46992 -5.14999,-5.48028 -8.75299,-5.4183 z M 212.49433,892.73119 c -4.78585,0.0598 -9.46823,2.39639 -12.26477,6.6648 -4.47447,6.8294 -2.5909,16.13163 4.23851,20.6061 6.8294,4.47447 16.13163,2.59089 20.6061,-4.23851 4.59222,-6.82941 2.70865,-16.13164 -4.23851,-20.60611 -2.56104,-1.67792 -5.46985,-2.46214 -8.34133,-2.42628 z m 155.76007,-0.36796 c -2.17921,0.037 -4.38754,0.55701 -6.4739,1.61675 -7.30045,3.76798 -10.24418,12.71692 -6.47621,20.01736 3.76798,7.30044 12.71691,10.24418 20.01736,6.47621 7.30044,-3.65023 10.24601,-12.59964 6.59579,-19.90007 -2.70823,-5.2472 -8.09394,-8.30463 -13.66304,-8.21025 z m -78.84824,-17.25531 c -9.26213,-0.091 -17.01062,7.1634 -17.4669,16.51708 -0.58875,9.65541 6.82947,17.89741 16.48488,18.36841 9.65541,0.471 17.89742,-6.82947 18.36841,-16.48488 0.58875,-9.53766 -6.82947,-17.89742 -16.48488,-18.36841 -0.30173,-0.0184 -0.60275,-0.0293 -0.90151,-0.0322 z M 124.25605,856.51643 c -1.78415,0.03 -3.58446,0.45214 -5.27342,1.31318 -6.00506,3.06148 -8.47742,10.36193 -5.416,16.48488 3.06148,6.00493 10.36221,8.47978 16.48488,5.4183 6.00521,-3.06148 8.47748,-10.36192 5.41601,-16.48488 -2.20044,-4.31624 -6.65227,-6.80826 -11.21147,-6.73148 z m 332.16993,-0.66234 c -3.91875,0.054 -7.74568,1.97552 -10.10066,5.508 -3.65023,5.65186 -2.11949,13.18836 3.53247,16.95634 5.65196,3.65022 13.18837,2.11939 16.95634,-3.53248 3.76797,-5.65196 2.11949,-13.30611 -3.53247,-16.95634 -2.11949,-1.36883 -4.50437,-2.00794 -6.85568,-1.97552 z M 186.20315,815.34101 c -2.53746,0.0402 -5.10508,0.63981 -7.52261,1.86514 -8.59552,4.35672 -12.1277,14.83702 -7.77098,23.43254 4.35671,8.59553 14.83701,12.12771 23.43254,7.77099 8.59552,-4.35672 12.1277,-14.83473 7.77098,-23.43025 -3.13138,-6.17799 -9.42532,-9.74089 -15.90993,-9.63842 z m 207.88937,-0.53125 c -5.61251,0.076 -11.05738,2.85404 -14.29548,7.93198 -5.29872,8.12456 -3.06043,18.95774 5.06413,24.13858 8.12456,5.29871 18.95775,3.06043 24.13858,-5.06414 5.29871,-8.00681 3.06043,-18.83999 -5.06413,-24.13858 -3.04676,-1.98701 -6.47552,-2.91337 -9.8431,-2.86784 z m -139.0935,-11.27815 c -9.54177,0.12993 -18.84223,4.82961 -24.50885,13.43996 -9.06662,13.77659 -5.17998,32.14558 8.59661,41.21221 4.82772,3.17922 10.48066,4.82725 16.25031,4.82725 10.12637,0.11775 19.42769,-4.94598 24.9619,-13.42386 8.94888,-13.77659 5.17999,-32.14558 -8.59661,-41.21221 -5.16624,-3.35585 -10.97827,-4.92131 -16.70336,-4.84335 z m 69.88827,-0.12419 c -4.32159,0.0809 -8.68952,1.11494 -12.79602,3.2013 -14.71851,7.41806 -20.60505,25.31667 -13.18699,39.91743 7.41805,14.7185 25.31437,20.60734 39.91513,13.18928 14.60075,-7.3003 20.60688,-24.96434 13.30657,-39.68284 0,-0.11775 4.6e-4,-0.11681 -0.11728,-0.23458 -5.33169,-10.57889 -16.07745,-16.59738 -27.1214,-16.39059 z M 79.159501,763.375 c -5.086762,-0.0744 -9.403375,3.95334 -9.631514,9.08646 -0.235499,5.29838 3.76719,9.89277 9.065766,10.12827 5.298542,0.35325 9.775054,-3.76969 10.128267,-9.06806 0.353248,-5.29872 -3.76949,-9.77273 -9.068065,-10.12597 -0.165551,-0.0106 -0.330394,-0.0183 -0.494454,-0.0207 z m 422.367639,-0.94062 c -5.08689,-0.0744 -9.40568,3.95335 -9.63381,9.08647 -0.2355,5.29871 3.76945,9.89047 9.06806,10.12597 5.29871,0.35325 9.77272,-3.76706 10.12597,-9.06577 0.2355,-5.29861 -3.76706,-9.77502 -9.06577,-10.12826 -0.16558,-0.0106 -0.33036,-0.016 -0.49445,-0.0184 z M 134.5821,758.07169 c -7.90153,-0.0544 -14.43715,6.05333 -14.89343,14.03791 -0.471,8.24214 5.77046,15.18826 14.01261,15.65926 8.24215,0.47099 15.19056,-5.76817 15.66156,-14.01032 0.47099,-8.1244 -5.77047,-15.19056 -14.01261,-15.66156 -0.25758,-0.0147 -0.51325,-0.0235 -0.76813,-0.0253 z m 311.56384,-0.70603 c -7.90154,-0.0544 -14.43716,6.05315 -14.89344,14.0379 -0.47099,8.24232 5.77029,15.18826 14.01261,15.65926 8.12458,0.471 15.19057,-5.88803 15.66156,-14.01261 0.471,-8.24232 -5.77028,-15.18826 -14.01261,-15.65926 -0.25757,-0.0147 -0.51324,-0.0236 -0.76812,-0.0253 z M 220.24692,742.90688 c -15.77804,0 -28.84763,12.36448 -29.67188,28.14251 -0.94199,16.36678 11.65615,30.37883 28.02293,31.32082 h 1.76624 c 16.48453,0 29.79191,-13.30463 29.67416,-29.78916 0,-16.48418 -13.30692,-29.79192 -29.79145,-29.67417 z m 140.2434,-0.28287 c -15.70949,-0.10197 -28.99527,12.2158 -29.79377,28.07122 -0.94199,16.36666 11.65603,30.49887 28.02293,31.32311 h 1.64894 c 16.3669,0 29.67188,-13.30681 29.67188,-29.79145 0.11775,-15.66041 -12.24478,-28.73034 -28.02293,-29.55459 -0.51146,-0.0294 -1.02029,-0.0452 -1.52705,-0.0483 z M 185.91338,695.29436 c -5.61263,0.076 -11.05969,2.85404 -14.29779,7.93197 -5.29871,8.00667 -3.06029,18.84014 5.06413,24.13858 8.12443,5.29871 18.95762,3.06029 24.13858,-5.06413 5.29872,-8.12442 3.06029,-18.95789 -5.06413,-24.13858 -3.04676,-1.98702 -6.47348,-2.91337 -9.84079,-2.86784 z M 393.79585,694.816 c -2.53745,0.0364 -5.10508,0.62463 -7.52261,1.81684 -8.59549,4.35672 -12.1277,14.83476 -7.77098,23.43025 4.35671,8.59548 14.83705,12.13 23.43254,7.77328 8.59549,-4.35672 12.1277,-14.83706 7.77098,-23.43255 -3.13138,-6.17795 -9.42532,-9.68079 -15.90993,-9.58782 z m -68.63489,-12.78452 c -10.00852,0 -19.3104,5.06383 -24.84461,13.42387 -8.94878,13.7765 -5.17989,32.14384 8.59661,41.09262 13.7765,8.94878 32.14384,5.18219 41.09262,-8.59431 8.94878,-13.7765 5.18219,-32.14614 -8.59431,-41.09492 -4.82772,-3.17923 -10.48075,-4.82726 -16.25031,-4.82726 z m -70.5713,-0.023 c -4.32161,0.0809 -8.68723,1.11494 -12.79373,3.20131 -14.71842,7.53572 -20.60726,25.43404 -13.18928,40.03471 5.06321,10.00846 15.30715,16.3676 26.61085,16.3676 16.36669,0 29.67417,-13.30702 29.67417,-29.79146 0,-4.59222 -1.06112,-9.1826 -3.18061,-13.42157 -5.33182,-10.5788 -16.07754,-16.59738 -27.1214,-16.39059 z M 123.90187,664.74627 c -3.91853,0.0541 -7.74568,1.97782 -10.10066,5.5103 -3.76788,5.65196 -2.11936,13.30611 3.53247,16.95633 5.65166,3.65023 13.18837,2.11949 16.95634,-3.53247 3.65023,-5.65165 2.11949,-13.18837 -3.53247,-16.95634 -2.11949,-1.36883 -4.50437,-2.01025 -6.85568,-1.97782 z m 331.81809,-0.65544 c -1.78415,0.0435 -3.58446,0.47744 -5.27342,1.33848 -6.005,3.06148 -8.35973,10.36009 -5.41601,16.3653 3.17923,6.00499 10.47943,8.47977 16.60218,5.41829 6.00499,-3.06147 8.36019,-10.47967 5.29871,-16.48488 -2.20044,-4.31624 -6.65219,-6.74818 -11.21146,-6.63719 z M 289.9949,635.01691 c -9.26212,-0.091 -17.01062,7.16356 -17.46689,16.51708 -0.471,9.65525 6.82962,17.89741 16.48488,18.36841 9.65525,0.58875 17.89741,-6.82963 18.36841,-16.48488 0.58875,-9.65526 -6.82963,-17.89742 -16.48488,-18.36841 -0.30174,-0.0184 -0.6029,-0.0292 -0.90152,-0.0322 z m -78.07092,-12.0118 c -2.15948,0.0332 -4.34246,0.53724 -6.39571,1.56386 -7.30013,3.65022 -10.24372,12.59994 -6.59349,19.90007 3.65022,7.30013 12.59993,10.24372 19.90006,6.59349 7.30045,-3.65022 10.24372,-12.59994 6.5935,-19.90007 -2.62359,-5.24719 -7.98567,-8.24223 -13.50436,-8.15735 z m 155.88196,-0.39096 c -4.78585,0.0598 -9.46823,2.39638 -12.26477,6.66479 -4.59222,6.94694 -2.70843,16.13163 4.23851,20.6061 6.82919,4.47447 16.13163,2.59068 20.6061,-4.23851 4.47447,-6.82919 2.59068,-16.13164 -4.23851,-20.6061 -2.56104,-1.67793 -5.47006,-2.46216 -8.34133,-2.42628 z m -183.6795,-42.3897 c -1.40617,0.0232 -2.82414,0.3519 -4.14882,1.0142 -4.70964,2.35493 -6.59579,8.12299 -4.24081,12.83283 2.35499,4.8277 8.12469,6.83083 12.95241,4.35809 4.70964,-2.35498 6.59579,-8.24257 4.24081,-12.9524 -1.69265,-3.38522 -5.21003,-5.31189 -8.80359,-5.25272 z m 211.11138,-0.45536 c -3.07597,0.0437 -6.06455,1.57081 -7.90438,4.29371 -2.82598,4.47437 -1.53028,10.48018 2.82644,13.42386 4.47447,2.94373 10.36055,1.64802 13.30428,-2.82644 2.94373,-4.47437 1.64778,-10.36062 -2.82644,-13.30428 -1.67792,-1.10387 -3.55433,-1.61306 -5.3999,-1.58685 z M 289.91671,568.50243 c -6.4408,-0.0178 -11.87059,4.93727 -12.32687,11.43915 -0.35325,6.82933 4.82882,12.60102 11.54034,13.07199 6.71151,0.35325 12.48141,-4.82875 12.95241,-11.54034 0.47099,-6.71158 -4.82883,-12.48141 -11.54034,-12.9524 -0.20975,-0.0106 -0.41777,-0.0178 -0.62554,-0.0184 z m 0.39096,-43.72588 c 136.56125,0 247.27325,110.71201 247.27325,247.27325 0,136.56125 -110.712,247.2733 -247.27325,247.2733 -136.56124,0 -247.273246,-110.71205 -247.273246,-247.2733 0,-136.56124 110.712006,-247.27325 247.273246,-247.27325 z"
       id="path1812"
       sodipodi:insensitive="true"
       style="display:inline;stroke-width:1.17749"
       inkscape:label="cardano_icon" />
  </g>
  <g
     inkscape:groupmode="layer"
     id="layer3"
     inkscape:label="a"
     style="display:none"
     sodipodi:insensitive="true">
    <path
       d="m 499.42755,804.82776 c -0.65212,-12.39401 -11.74147,-21.85268 -24.46204,-21.85268 h -69.14565 v 0 L 386.90257,735.0295 v 0 h 42.72698 c 12.39404,0 23.8096,-9.13241 24.46198,-21.85255 0.65236,-13.04665 -9.78471,-23.80969 -22.50504,-23.80969 H 368.9638 v 0 L 290.68544,492.04047 c -3.26162,-8.48016 -11.74182,-14.35104 -21.20036,-14.35104 -9.13252,0 -17.61258,5.87088 -21.20039,14.35104 l -75.0168,197.00056 v 0 h -61.31812 c -12.394016,0 -23.809743,9.13257 -24.461896,21.85264 -0.652364,13.04658 9.784736,23.80977 22.504956,23.80977 h 44.6837 v 0 l -18.26471,47.61929 v 0 H 67.918303 c -12.39433,0 -23.809743,9.1325 -24.462047,21.85265 -0.652351,13.04648 9.784794,23.8097 22.504943,23.8097 h 52.511871 v 0 L 57.154932,987.15123 c -4.566159,11.7417 1.304658,25.11407 13.046399,29.68057 2.60929,1.3046 5.21854,1.3046 7.827914,1.3046 9.132418,0 17.612638,-5.2186 21.200369,-14.3511 L 167.07087,828.31129 v 0 h 206.45919 v 0 l 70.45053,177.43101 c 3.26159,9.1326 11.74181,14.351 21.20038,14.351 2.60922,0 5.87098,-0.652 8.48029,-1.3045 11.74154,-4.5663 16.96018,-17.6127 12.39377,-29.68072 L 422.12794,828.63743 v 0 h 51.8594 c 15.32947,-0.32614 26.09269,-10.7632 25.44021,-23.80967 z m -228.96407,-240.70573 49.25016,124.919 v 0 h -97.19559 v 0 l 47.94543,-124.919 c -0.65228,0 0,0 0,0 z m -84.80149,218.85305 18.26462,-47.94558 v 0 h 132.74738 v 0 l 18.91729,47.94558 v 0 z"
       id="path874"
       sodipodi:insensitive="true"
       style="display:inline;stroke-width:1.29143"
       inkscape:label="ada" />
  </g>
</svg>
